<?xml version="1.0" encoding="utf-8"?>
<!-- Generator: Adobe Illustrator 27.1.1, SVG Export Plug-In . SVG Version: 6.00 Build 0)  -->
<svg version="1.1" id="Laag_1" xmlns="http://www.w3.org/2000/svg" xmlns:xlink="http://www.w3.org/1999/xlink" x="0px" y="0px"
	 viewBox="0 0 192 35" style="enable-background:new 0 0 192 35;" xml:space="preserve">
<style type="text/css">
	.st0{display:none;}
	.st1{display:inline;}
	.st2{display:inline;clip-path:url(#SVGID_00000079481572452408828070000008718429491140645818_);}
	.st3{fill:none;}
	.st4{display:none;fill:#D16527;}
	.st5{fill:#D16527;}
	.st6{fill:#EDEDED;}
	.st7{fill:#DADADA;}
	.st8{font-family:'GTWalsheimProBold';}
	.st9{font-size:25.4955px;}
	.st10{fill:#E54514;}
	.st11{font-size:23.3122px;}
</style>
<g class="st0">
	<defs>
		<rect id="SVGID_1_" width="192" height="35"/>
	</defs>
	<clipPath id="SVGID_00000018205198481773728560000018170638830506627211_" class="st1">
		<use xlink:href="#SVGID_1_"  style="overflow:visible;"/>
	</clipPath>
	<g style="display:inline;clip-path:url(#SVGID_00000018205198481773728560000018170638830506627211_);">
		<path class="st3" d="M0,35"/>
		<path class="st3" d="M0,35"/>
		<circle class="st4" cx="17.5" cy="17.5" r="1.2"/>
		<path class="st5" d="M0,35"/>
		<path class="st6" d="M46.6,9.2h10.5l2.6,2.6v5.9l-2.6,2.6h-7.2V26h-3.3V9.2z M55.6,17.6l0.8-0.8v-3.9l-0.8-0.8h-5.8v5.6H55.6z
			 M75.3,20.4V26H72v-4.8l-1.4-1.6h-5.2V26h-3.3V9.2h10.5l2.6,2.6v5.1l-1.6,1.7L75.3,20.4z M65.3,16.9h5.8L72,16v-3.3l-0.8-0.8h-5.8
			V16.9z M78,23.2V12l2.8-2.8h8.6l2.8,2.8v11.3L89.4,26h-8.6L78,23.2z M87.7,23.2l1.2-1.2v-8.8L87.7,12h-5.2l-1.2,1.2V22l1.2,1.2
			H87.7z"/>
		<path class="st5" d="M95.1,9.2h3l5,10.8h0l5-10.8h3V26H108V15.8h0l-3.9,7.9h-2l-3.8-7.9h0V26h-3.1L95.1,9.2L95.1,9.2z M114.1,23.2
			V12l2.8-2.8h8.6l2.8,2.8v11.3l-2.8,2.8h-8.6L114.1,23.2z M123.7,23.2l1.2-1.2v-8.8l-1.2-1.2h-5.2l-1.2,1.2V22l1.2,1.2H123.7z
			 M134.6,12h-5V9.2h13.3V12h-5v14h-3.3V12z M144.2,23.2V12l2.8-2.8h8.6l2.8,2.8v11.3l-2.8,2.8h-8.6L144.2,23.2z M153.8,23.2
			l1.2-1.2v-8.8l-1.2-1.2h-5.2l-1.2,1.2V22l1.2,1.2H153.8z M174.4,20.4V26h-3.3v-4.8l-1.4-1.6h-5.2V26h-3.3V9.2h10.5l2.6,2.6v5.1
			l-1.6,1.7L174.4,20.4L174.4,20.4z M164.5,16.9h5.8l0.8-0.8v-3.3l-0.8-0.8h-5.8V16.9z M177.1,23.4V21h3.2v1.4l0.8,0.8h5l0.8-0.8
			v-2.8l-0.8-0.8h-6.4l-2.6-2.6v-4.4l2.6-2.6h7.6l2.6,2.6v2.4h-3.2v-1.4l-0.8-0.8h-4.8l-0.8,0.8v2.5l0.8,0.8h6.4l2.6,2.6v4.7
			l-2.6,2.6h-7.8C179.6,26,177.1,23.4,177.1,23.4z"/>
	</g>
</g>
<g>
	<text transform="matrix(1 0 0 1 47.089 26.3882)" class="st7 st8 st9">TJUNAZ</text>
	<g>
		<text transform="matrix(1 0 0 1 50.9715 25.5317)" class="st10 st8 st11">TJUNAZ</text>
	</g>
</g>
<g id="Car.psd">
	<defs>
		<rect id="SVGID_00000116918208448075376720000002341339960197183384_" x="3.4" y="4.8" width="45.6" height="21.2"/>
	</defs>
	<clipPath id="SVGID_00000023273700610955799220000003041398134274213813_">
		<use xlink:href="#SVGID_00000116918208448075376720000002341339960197183384_"  style="overflow:visible;"/>
	</clipPath>
	<g style="clip-path:url(#SVGID_00000023273700610955799220000003041398134274213813_);">
		
			<image style="overflow:visible;" width="688" height="319" id="Tjunaz" xlink:href="8122F240.png"  transform="matrix(6.632479e-02 0 0 6.632479e-02 3.3987 4.7989)">
		</image>
	</g>
</g>
</svg>
